<svg width="191" height="199" viewBox="0 0 191 199" fill="none" xmlns="http://www.w3.org/2000/svg">
<g filter="url(#filter0_f_148_896)">
<path d="M100.633 90.3688C103.596 93.3316 103.594 98.1419 100.633 101.103L92.1123 109.624C90.3949 111.341 87.6091 111.341 85.8917 109.624L78.2661 101.998L89.8971 90.3671C92.8599 87.4043 97.6701 87.406 100.631 90.3671L100.633 90.3688Z" fill="url(#paint0_linear_148_896)"/>
</g>
<path d="M100.633 90.3688C103.596 93.3316 103.594 98.1419 100.633 101.103L92.1123 109.624C90.3949 111.341 87.6091 111.341 85.8917 109.624L78.2661 101.998L89.8971 90.3671C92.8599 87.4043 97.6701 87.406 100.631 90.3671L100.633 90.3688Z" fill="url(#paint1_linear_148_896)"/>
<g filter="url(#filter1_b_148_896)">
<path d="M77.3688 90.3692C80.3317 87.4064 85.1419 87.4082 88.103 90.3692L99.7339 102L92.1083 109.626C90.391 111.343 87.6051 111.343 85.8878 109.626L77.3671 101.105C74.4043 98.1423 74.406 93.3321 77.3671 90.371L77.3688 90.3692Z" fill="url(#paint2_linear_148_896)"/>
<path d="M78.0759 91.0763C80.6481 88.5042 84.8252 88.5056 87.3959 91.0763L98.3197 102L91.4012 108.919C90.0744 110.245 87.9217 110.245 86.5949 108.919L78.0742 100.398C75.5021 97.8259 75.5035 93.6488 78.0742 91.0781L78.0759 91.0763Z" stroke="url(#paint3_linear_148_896)" stroke-width="2"/>
</g>
<defs>
<filter id="filter0_f_148_896" x="-9.73386" y="0.145508" width="200.588" height="198.766" filterUnits="userSpaceOnUse" color-interpolation-filters="sRGB">
<feFlood flood-opacity="0" result="BackgroundImageFix"/>
<feBlend mode="normal" in="SourceGraphic" in2="BackgroundImageFix" result="shape"/>
<feGaussianBlur stdDeviation="44" result="effect1_foregroundBlur_148_896"/>
</filter>
<filter id="filter1_b_148_896" x="57.1456" y="70.1477" width="60.5883" height="58.7661" filterUnits="userSpaceOnUse" color-interpolation-filters="sRGB">
<feFlood flood-opacity="0" result="BackgroundImageFix"/>
<feGaussianBlur in="BackgroundImageFix" stdDeviation="9"/>
<feComposite in2="SourceAlpha" operator="in" result="effect1_backgroundBlur_148_896"/>
<feBlend mode="normal" in="SourceGraphic" in2="effect1_backgroundBlur_148_896" result="shape"/>
</filter>
<linearGradient id="paint0_linear_148_896" x1="101.659" y1="90.1863" x2="83.2452" y2="107.135" gradientUnits="userSpaceOnUse">
<stop stop-color="#F26DFF"/>
<stop offset="1" stop-color="#FF027A"/>
</linearGradient>
<linearGradient id="paint1_linear_148_896" x1="101.659" y1="90.1863" x2="83.2452" y2="107.135" gradientUnits="userSpaceOnUse">
<stop stop-color="#F26DFF"/>
<stop offset="1" stop-color="#FF027A"/>
</linearGradient>
<linearGradient id="paint2_linear_148_896" x1="88.6445" y1="111.17" x2="93.6606" y2="88.9548" gradientUnits="userSpaceOnUse">
<stop stop-color="white" stop-opacity="0.2"/>
<stop offset="1" stop-color="white" stop-opacity="0.49"/>
</linearGradient>
<linearGradient id="paint3_linear_148_896" x1="74.0947" y1="96.3171" x2="96.225" y2="92.0282" gradientUnits="userSpaceOnUse">
<stop stop-color="white"/>
<stop offset="1" stop-color="white" stop-opacity="0"/>
</linearGradient>
</defs>
</svg>
