<svg width="192" height="189" viewBox="0 0 192 189" fill="none" xmlns="http://www.w3.org/2000/svg">
<g filter="url(#filter0_f_148_902)">
<path d="M102.637 88H89.511C88.9761 88 88.5445 88.4339 88.5445 88.9666V96.7427C88.5445 97.2777 88.9784 97.7093 89.511 97.7093H90.9597V99.8628C90.9597 100.506 91.7357 100.827 92.1903 100.373L94.8536 97.7093H102.637C103.172 97.7093 103.603 97.2754 103.603 96.7427V88.9666C103.603 88.4316 103.169 88 102.637 88Z" fill="url(#paint0_linear_148_902)"/>
</g>
<path d="M102.637 88H89.5111C88.9761 88 88.5445 88.4339 88.5445 88.9666V96.7427C88.5445 97.2777 88.9784 97.7093 89.5111 97.7093H90.9598V99.8628C90.9598 100.506 91.7358 100.827 92.1904 100.373L94.8536 97.7093H102.637C103.172 97.7093 103.603 97.2754 103.603 96.7427V88.9666C103.603 88.4316 103.169 88 102.637 88Z" fill="url(#paint1_linear_148_902)"/>
<g filter="url(#filter1_b_148_902)">
<path d="M95.8087 91.5288H85.0709C83.9275 91.5288 83 92.4563 83 93.5974V110.931C83 112.075 83.9275 113 85.0709 113H95.8087C96.9521 113 97.8796 112.075 97.8796 110.931V93.5974C97.8796 92.4563 96.9521 91.5288 95.8087 91.5288ZM94.973 111.512C94.8881 111.597 94.7687 111.65 94.6401 111.65H86.2395C85.9801 111.65 85.7688 111.441 85.7688 111.182C85.7688 111.053 85.8216 110.934 85.9066 110.849C85.9915 110.764 86.1086 110.711 86.2395 110.711H94.6401C94.8996 110.711 95.1108 110.922 95.1108 111.182C95.1108 111.31 95.058 111.43 94.973 111.512Z" fill="url(#paint2_linear_148_902)"/>
<path d="M85.0709 92.5288H95.8087C96.4005 92.5288 96.8796 93.0094 96.8796 93.5974V110.931C96.8796 111.503 96.4298 111.971 95.8623 111.999C96.0214 111.762 96.1108 111.478 96.1108 111.182C96.1108 110.37 95.4519 109.711 94.6401 109.711H86.2395C85.8322 109.711 85.4639 109.877 85.1995 110.142C84.9332 110.408 84.7688 110.779 84.7688 111.182C84.7688 111.485 84.8605 111.766 85.017 111.999C84.4497 111.971 84 111.503 84 110.931V93.5974C84 93.0093 84.4791 92.5288 85.0709 92.5288Z" stroke="url(#paint3_linear_148_902)" stroke-width="2"/>
</g>
<path d="M95.1108 111.182C95.1108 111.31 95.058 111.43 94.9731 111.512C94.8881 111.597 94.7687 111.65 94.6402 111.65H86.2395C85.9801 111.65 85.7689 111.441 85.7689 111.182C85.7689 111.053 85.8217 110.934 85.9066 110.849C85.9916 110.764 86.1086 110.711 86.2395 110.711H94.6402C94.8996 110.711 95.1108 110.922 95.1108 111.182Z" fill="white"/>
<defs>
<filter id="filter0_f_148_902" x="0.54446" y="0" width="191.059" height="188.585" filterUnits="userSpaceOnUse" color-interpolation-filters="sRGB">
<feFlood flood-opacity="0" result="BackgroundImageFix"/>
<feBlend mode="normal" in="SourceGraphic" in2="BackgroundImageFix" result="shape"/>
<feGaussianBlur stdDeviation="44" result="effect1_foregroundBlur_148_902"/>
</filter>
<filter id="filter1_b_148_902" x="65" y="73.5288" width="50.8796" height="57.4712" filterUnits="userSpaceOnUse" color-interpolation-filters="sRGB">
<feFlood flood-opacity="0" result="BackgroundImageFix"/>
<feGaussianBlur in="BackgroundImageFix" stdDeviation="9"/>
<feComposite in2="SourceAlpha" operator="in" result="effect1_backgroundBlur_148_902"/>
<feBlend mode="normal" in="SourceGraphic" in2="effect1_backgroundBlur_148_902" result="shape"/>
</filter>
<linearGradient id="paint0_linear_148_902" x1="88.1427" y1="99.3968" x2="102.823" y2="87.2906" gradientUnits="userSpaceOnUse">
<stop stop-color="#00B1FF"/>
<stop offset="1" stop-color="#00FF79"/>
</linearGradient>
<linearGradient id="paint1_linear_148_902" x1="88.1427" y1="99.3968" x2="102.823" y2="87.2906" gradientUnits="userSpaceOnUse">
<stop stop-color="#00B1FF"/>
<stop offset="1" stop-color="#00FF79"/>
</linearGradient>
<linearGradient id="paint2_linear_148_902" x1="83.84" y1="111.788" x2="101.674" y2="99.4286" gradientUnits="userSpaceOnUse">
<stop stop-color="white" stop-opacity="0.2"/>
<stop offset="1" stop-color="white" stop-opacity="0.49"/>
</linearGradient>
<linearGradient id="paint3_linear_148_902" x1="84.0503" y1="93.2175" x2="101.259" y2="105.969" gradientUnits="userSpaceOnUse">
<stop stop-color="white"/>
<stop offset="1" stop-color="white" stop-opacity="0"/>
</linearGradient>
</defs>
</svg>
