<svg width="23" height="21" viewBox="0 0 23 21" fill="none" xmlns="http://www.w3.org/2000/svg">
<path d="M16.1605 7.15424C19.8068 7.27175 22.7505 10.2751 22.787 13.9092C22.7991 15.2398 22.4296 16.4823 21.7808 17.5381C21.6889 17.6867 21.6716 17.8682 21.7271 18.0324L22.3637 19.9332C22.5823 20.5882 21.93 21.1982 21.2882 20.939L19.3228 20.144C19.1701 20.0818 18.9984 20.0836 18.851 20.1527C17.9749 20.564 16.9983 20.7973 15.9679 20.8007C12.2748 20.818 9.1957 17.8578 9.08815 14.1805C8.97193 10.2423 12.2071 7.02637 16.1622 7.15251L16.1605 7.15424Z" fill="url(#paint0_linear_148_909)"/>
<g filter="url(#filter0_b_148_909)">
<path d="M8.56919 0.00475058C3.85294 0.156523 0.0469058 4.06467 0.000448786 8.79377C-0.0167575 10.5254 0.461578 12.1431 1.30125 13.5142C1.41997 13.7074 1.44234 13.9437 1.37179 14.1593L0.549331 16.6342C0.265427 17.4862 1.10853 18.2796 1.9396 17.9415L4.48269 16.9084C4.67884 16.8291 4.90081 16.8291 5.09352 16.9205C6.2257 17.4552 7.48864 17.7587 8.82213 17.7639C13.5986 17.7846 17.5801 13.9351 17.7195 9.14905C17.8692 4.02328 13.6864 -0.16082 8.57092 0.00475058H8.56919Z" fill="url(#paint1_linear_148_909)"/>
<path d="M8.56919 0.00475058C3.85294 0.156523 0.0469058 4.06467 0.000448786 8.79377C-0.0167575 10.5254 0.461578 12.1431 1.30125 13.5142M8.56919 0.00475058V1.00475H8.57092H8.58577M8.56919 0.00475058L8.57092 0.0582705L8.60136 1.00423C8.59616 1.0044 8.59096 1.00457 8.58577 1.00475M8.56919 0.00475058L8.58577 1.00475M8.58577 1.00475C4.41548 1.1473 1.04157 4.61253 1.0004 8.80359L1.0004 8.8037C0.985114 10.342 1.40941 11.7758 2.15363 12.9913M2.15363 12.9913C2.15349 12.9911 2.15334 12.9908 2.15319 12.9906L1.30125 13.5142M2.15363 12.9913C2.15377 12.9915 2.1539 12.9918 2.15404 12.992L1.30125 13.5142M2.15363 12.9913C2.43517 13.4499 2.47828 13.9933 2.3222 14.4703L2.32077 14.4746L2.32077 14.4746L1.4983 16.9496L1.49805 16.9503C1.49364 16.9636 1.49323 16.9708 1.49318 16.9732C1.49311 16.9758 1.49338 16.9776 1.49392 16.9796C1.49524 16.9843 1.4999 16.9948 1.51148 17.0057C1.52306 17.0166 1.53332 17.0202 1.53708 17.021C1.53854 17.0213 1.5398 17.0214 1.5418 17.0212C1.54353 17.021 1.55027 17.0203 1.56282 17.0152L1.56324 17.015L4.10633 15.982L4.10774 15.9814C4.5426 15.8055 5.05668 15.7966 5.52096 16.0165C5.52134 16.0166 5.52171 16.0168 5.52208 16.017L5.09352 16.9205L1.37179 14.1593C1.44234 13.9437 1.41997 13.7074 1.30125 13.5142" stroke="url(#paint2_linear_148_909)" stroke-width="2"/>
</g>
<defs>
<filter id="filter0_b_148_909" x="-18" y="-18" width="53.7234" height="54.0212" filterUnits="userSpaceOnUse" color-interpolation-filters="sRGB">
<feFlood flood-opacity="0" result="BackgroundImageFix"/>
<feGaussianBlur in="BackgroundImageFix" stdDeviation="9"/>
<feComposite in2="SourceAlpha" operator="in" result="effect1_backgroundBlur_148_909"/>
<feBlend mode="normal" in="SourceGraphic" in2="effect1_backgroundBlur_148_909" result="shape"/>
</filter>
<linearGradient id="paint0_linear_148_909" x1="14.4917" y1="7.61736" x2="17.5536" y2="21.2153" gradientUnits="userSpaceOnUse">
<stop stop-color="#0BC7FF"/>
<stop offset="1" stop-color="#DB0EFE"/>
</linearGradient>
<linearGradient id="paint1_linear_148_909" x1="1.00059" y1="17.0039" x2="16.9848" y2="1.28383" gradientUnits="userSpaceOnUse">
<stop stop-color="white" stop-opacity="0.2"/>
<stop offset="1" stop-color="white" stop-opacity="0.49"/>
</linearGradient>
<linearGradient id="paint2_linear_148_909" x1="1.25107" y1="1.41734" x2="16.3299" y2="17.2736" gradientUnits="userSpaceOnUse">
<stop stop-color="white"/>
<stop offset="1" stop-color="white" stop-opacity="0"/>
</linearGradient>
</defs>
</svg>
